<?xml version="1.0" encoding="UTF-8" standalone="yes"?><svg fill="none" xmlns="http://www.w3.org/2000/svg" xmlns:xlink="http://www.w3.org/1999/xlink" version="1.2" baseProfile="tiny" x="0" y="0" width="256" height="256" viewBox="0 0 256 256"><defs/><g clip-path="url(#clip0_35_244373)"><path fill="#ff0000" fill-opacity="1" d="M 223.863 143.68 L 223.051 144.91 C 222.608 145.622 221.948 146.175 221.168 146.485 C 220.245 146.854 219.31 147.223 218.375 147.555 C 217.252 147.916 216.304 148.683 215.718 149.708 C 215.401 150.326 214.67 150.606 214.02 150.36 C 213.528 150.237 213.048 150.102 212.568 150.003 C 212.089 149.905 211.695 150.188 211.609 150.889 C 211.523 152.067 210.936 153.15 209.997 153.866 C 209.735 154.078 209.484 154.304 209.247 154.543 L 208.865 154.863 C 208.271 155.483 207.327 155.61 206.589 155.171 C 205.984 154.859 205.252 154.942 204.732 155.38 C 202.492 157.127 200.266 158.874 198.002 160.572 C 197.854 160.682 197.337 160.572 197.141 160.338 C 196.918 160.104 196.811 159.784 196.845 159.464 C 196.956 158.997 197.313 158.591 197.436 158.123 C 197.478 157.812 197.373 157.498 197.153 157.274 C 196.891 157.095 196.564 157.036 196.255 157.114 C 195.796 157.274 195.376 157.53 195.025 157.865 C 194.206 158.699 193.446 159.586 192.748 160.522 C 192.558 160.975 192.453 161.459 192.441 161.949 L 192.613 161.777 C 190.878 161.494 189.747 162.589 188.738 163.66 C 187.879 164.684 187.125 165.794 186.486 166.969 C 186.13 167.534 185.598 167.966 184.973 168.199 C 184.354 168.448 183.75 168.731 183.165 169.048 C 182.257 169.51 181.641 170.398 181.528 171.41 C 181.555 172.094 181.159 172.724 180.532 172.997 C 179.144 173.592 177.936 174.537 177.025 175.741 C 175.672 177.427 174.196 179.026 172.744 180.662 C 172.473 180.837 172.156 180.927 171.834 180.921 C 171.514 180.921 171.378 179.998 171.649 179.58 C 171.92 179.161 171.969 179.001 172.166 178.731 C 172.459 178.323 172.78 177.937 173.125 177.574 C 173.706 176.976 174.183 176.286 174.54 175.532 C 175.406 173.715 176.667 172.113 178.231 170.844 C 180.407 168.771 182.462 166.574 184.383 164.262 C 184.766 163.728 185.203 163.234 185.687 162.786 C 188.269 160.928 190.477 158.599 192.195 155.921 C 192.552 155.367 193.118 154.949 193.425 154.396 C 193.585 154.109 193.585 153.759 193.425 153.473 C 192.355 152.513 193.597 151.664 193.425 150.766 C 194.163 151.012 194.901 151.209 195.615 151.517 C 196.329 151.824 196.476 151.431 196.845 151.148 C 197.389 150.828 197.644 150.177 197.46 149.573 L 197.94 149.708 C 198.756 149.854 199.586 149.543 200.106 148.896 C 200.331 148.662 200.331 148.293 200.106 148.06 C 200.017 147.922 199.873 147.828 199.711 147.802 C 199.55 147.777 199.385 147.821 199.257 147.924 C 198.605 148.404 198.026 148.958 197.399 149.474 C 197.301 149.167 197.227 148.847 197.116 148.539 C 196.885 148.088 196.384 147.843 195.886 147.936 C 194.73 148.574 193.853 149.617 193.425 150.865 C 192.571 150.676 191.706 151.134 191.383 151.947 C 191.125 152.538 190.571 153.067 190.866 153.805 C 191.024 154.293 190.861 154.827 190.46 155.146 C 190.079 155.589 189.636 155.466 189.131 155.331 C 188.654 155.188 188.141 155.398 187.901 155.835 C 187.606 156.61 187.434 157.434 187.065 158.172 C 186.731 159.163 185.832 159.854 184.789 159.92 C 183.612 159.947 182.46 160.259 181.43 160.83 C 181.11 160.928 180.829 161.126 180.63 161.396 C 179.634 163.414 177.714 164.595 176.324 166.256 C 175.795 166.895 175.377 167.633 174.897 168.31 C 174.785 168.407 174.634 168.443 174.491 168.409 C 174.196 168.261 173.765 168.101 173.691 167.855 C 173.268 166.418 173.167 164.906 173.396 163.426 C 173.467 163.096 173.645 162.798 173.9 162.577 C 174.93 161.716 175.885 160.77 176.755 159.747 C 177.366 158.758 178.211 157.934 179.215 157.348 C 179.978 156.942 180.212 155.995 180.79 155.417 C 181.614 154.592 182.599 153.928 183.497 153.178 C 184.303 152.565 184.966 151.784 185.441 150.889 C 186.095 149.688 187.037 148.67 188.184 147.924 C 189.624 146.817 190.817 145.365 192.65 144.787 C 193.114 144.615 193.535 144.342 193.88 143.987 C 195.394 142.425 196.895 140.838 198.346 139.214 C 198.638 138.794 198.719 138.263 198.568 137.774 C 198.494 137.344 197.965 136.79 197.584 136.802 C 196.913 136.781 196.241 136.822 195.578 136.925 C 193.435 137.277 191.329 137.833 189.291 138.586 C 187.99 139.219 186.421 138.805 185.6 137.614 C 185.383 137.36 185.14 137.13 184.875 136.925 C 184.408 136.753 183.883 136.88 183.546 137.245 C 183.275 137.664 183.091 138.303 182.709 138.476 C 182.328 138.648 181.811 138.217 181.344 138.082 C 180.888 137.873 180.403 137.74 179.904 137.688 C 177.874 137.836 175.869 137.59 173.864 137.541 C 172.849 137.478 171.837 137.731 170.972 138.266 C 169.85 139.091 168.331 139.115 167.183 138.328 C 166.458 137.885 165.546 137.885 164.821 138.328 C 163.89 138.751 162.838 138.826 161.856 138.537 C 160.884 138.279 159.924 138.02 158.928 137.824 C 157.931 137.627 157.082 137.073 156.123 136.802 C 155.275 136.714 154.419 136.876 153.662 137.27 C 152.616 136.729 151.755 137.43 150.808 137.651 C 150.151 137.896 149.413 137.63 149.061 137.024 C 148.558 136.123 147.545 135.631 146.526 135.794 C 145.669 135.716 144.808 135.91 144.066 136.347 C 143.411 136.916 142.448 136.951 141.753 136.433 C 141.08 135.905 140.181 135.766 139.378 136.064 C 137.171 136.96 134.697 136.928 132.513 135.978 C 131.583 135.546 130.499 135.607 129.622 136.138 C 128.724 136.655 128.035 136.249 127.346 135.72 C 126.953 135.424 126.94 135.191 127.346 135.018 C 127.752 134.846 128.318 134.735 128.454 134.145 C 128.032 133.9 127.569 133.734 127.088 133.653 C 125.587 133.653 124.074 133.85 122.573 134.01 C 122.242 134.072 121.928 134.202 121.65 134.391 C 120.912 134.76 120.494 135.621 119.583 135.72 C 118.673 135.818 117.898 135.72 117.123 135.72 C 114.101 135.615 111.079 135.925 108.141 136.642 C 106.158 137.045 104.123 137.127 102.113 136.888 C 101.615 136.832 101.137 136.655 100.723 136.372 C 100.303 136.085 99.7521 136.085 99.3325 136.372 C 98.7506 136.717 98.0174 136.679 97.4748 136.273 C 97.0676 135.977 96.5952 135.782 96.0969 135.707 C 94.7682 135.609 93.4148 135.597 92.0738 135.597 C 90.7328 135.597 89.4902 134.982 88.1123 134.945 C 83.1911 134.822 78.3561 134.772 73.4842 135.043 C 72.3326 135.105 71.1786 135.105 70.027 135.043 C 67.1728 134.908 64.3185 134.908 61.415 134.883 C 58.5115 134.859 56.0386 134.883 53.3443 134.883 C 52.5247 134.843 51.7034 134.843 50.8837 134.883 C 49.2228 135.08 47.5866 135.511 45.9626 135.56 C 44.3386 135.609 42.69 134.994 41.0414 134.957 C 32.294 134.76 23.5467 134.723 14.8116 134.957 C 12.351 135.043 10.1488 134.576 8.66017 132.386 C 7.88755 131.496 6.978 130.737 5.96584 130.134 C 3.84642 128.691 2.3622 126.489 1.81976 123.983 C 1.62292 122.912 0.786317 122.285 0.232687 121.522 C 0.00643645 121.163 -0.0583997 120.725 0.0539258 120.315 C 0.166251 119.907 0.445403 119.562 0.823225 119.369 C 2.58328 118.392 4.536 117.813 6.54408 117.671 C 11.4652 117.573 16.3003 117.413 21.1722 117.438 C 27.3975 117.438 33.6228 117.671 39.8357 117.794 C 41.174 117.818 42.5079 117.957 43.8219 118.213 C 45.9704 118.637 48.1848 118.599 50.3178 118.102 C 51.1236 117.908 51.9495 117.809 52.7784 117.807 C 58.8314 117.757 64.8844 117.729 70.9375 117.721 C 74.1239 117.721 77.3227 117.721 80.5091 117.807 C 82.859 117.807 85.2334 117.511 87.5095 118.373 C 90.3637 118.434 93.218 118.533 96.1215 118.545 C 100.821 118.545 105.533 118.545 110.233 118.545 C 116.126 118.545 122.007 118.705 127.888 118.803 C 128.388 118.747 128.894 118.792 129.376 118.939 C 130.533 119.468 131.714 118.939 132.796 119.111 C 134.107 119.393 135.443 119.541 136.783 119.554 C 138.013 119.554 139.132 119.628 140.314 119.64 C 143 119.506 145.692 119.751 148.31 120.366 C 148.969 120.506 149.643 120.56 150.316 120.526 L 165.448 120.821 C 166.118 120.747 166.794 120.78 167.454 120.919 C 169.576 121.448 171.771 121.619 173.95 121.424 C 177.481 121.424 181.024 121.301 184.542 121.424 C 186.548 121.534 188.516 120.587 190.509 121.338 C 192.527 121.338 194.545 121.338 196.562 121.338 C 197.736 121.347 198.909 121.228 200.056 120.981 C 201.38 120.785 202.718 120.694 204.055 120.71 C 206.063 120.823 208.078 120.745 210.071 120.476 C 210.235 120.438 210.375 120.336 210.461 120.192 C 210.547 120.048 210.57 119.875 210.526 119.714 C 210.526 119.541 210.526 119.32 210.428 119.222 C 210.201 118.98 209.934 118.781 209.64 118.631 C 208.89 118.261 208.102 117.973 207.291 117.77 C 205.954 117.57 204.7 117.009 203.661 116.146 C 203.399 115.921 203.032 115.864 202.714 115.998 C 202.077 116.191 201.39 116.147 200.782 115.875 C 197.03 114.411 193.327 112.836 189.71 111.028 C 188.399 110.271 186.992 109.695 185.527 109.318 C 185.358 109.292 185.197 109.238 185.047 109.158 C 181.897 107.165 178.28 106.23 174.934 104.679 C 173.245 103.929 171.654 102.974 170.197 101.838 C 167.985 100.031 165.575 98.4837 163.012 97.2239 C 161.499 96.5104 160.035 95.6615 158.571 94.8372 C 157.355 94.2737 156.211 93.5675 155.163 92.7334 C 154.285 91.7223 153.521 90.6165 152.887 89.4362 C 150.746 86.4361 148.328 83.6434 145.665 81.0948 C 145.198 80.615 144.73 80.1352 144.275 79.6431 C 144.167 79.517 144.094 79.3639 144.066 79.2002 C 144.006 77.861 144.211 76.5231 144.669 75.2632 C 144.834 74.9691 145.076 74.7263 145.37 74.562 C 147.539 73.2409 150.113 72.7473 152.616 73.1718 C 153.118 73.233 153.608 73.3699 154.068 73.5777 C 155.15 74.0325 156.198 74.5628 157.205 75.1648 C 160.781 77.3728 164.478 79.3773 168.278 81.1686 C 170.709 82.3136 173.071 83.5993 175.352 85.0194 C 177.444 86.3974 179.83 87.2832 181.885 88.7841 C 183.361 89.8545 185.17 90.4573 186.622 91.6384 C 187.045 91.9029 187.519 92.0787 188.012 92.1551 C 188.511 92.193 189.006 92.2795 189.488 92.4135 C 191.455 93.3432 193.472 94.1642 195.529 94.8741 C 197.419 95.5667 199.237 96.4451 200.955 97.4946 C 201.533 97.8415 202.143 98.1343 202.775 98.3681 C 209.333 100.927 215.62 104.15 222.189 106.697 C 222.963 107.027 223.719 107.396 224.453 107.804 C 228.952 110.053 233.578 112.042 238.306 113.759 C 241.911 115.137 245.503 116.503 249.206 117.622 C 249.696 117.743 250.149 117.984 250.523 118.323 C 252.135 120.009 253.943 121.534 255.444 123.38 C 255.893 123.897 256.047 124.606 255.85 125.262 L 255.702 125.742 C 255.604 126.074 255.53 126.394 255.407 126.714 C 254.644 128.393 254.262 130.222 254.288 132.066 C 254.275 132.923 253.894 133.735 253.242 134.293 C 252.126 135.556 250.707 136.517 249.12 137.085 C 248.193 137.442 247.211 137.638 246.217 137.664 C 244.876 137.664 243.523 137.664 242.182 137.664 C 240.522 137.448 238.834 137.634 237.26 138.205 C 235.683 138.755 234.153 139.429 232.684 140.223 C 230.309 141.822 227.516 142.585 224.896 143.667 C 224.572 143.767 224.238 143.829 223.899 143.852 C 223.899 143.68 223.899 143.52 223.899 143.347 C 223.789 141.465 222.669 140.518 221.033 140.887 C 219.901 141.153 218.788 141.49 217.699 141.896 C 217.317 142.043 217.059 142.622 216.887 143.065 C 216.788 143.311 216.961 143.692 217.071 143.987 C 217.182 144.283 217.305 144.492 218.302 143.864 C 218.957 143.366 219.8 143.186 220.602 143.372 C 221.753 143.564 222.918 143.662 224.084 143.667 M 206.86 143.667 C 207.286 143.435 207.696 143.176 208.09 142.892 C 208.309 142.667 208.5 142.415 208.656 142.142 C 208.39 141.995 208.11 141.875 207.82 141.785 C 207.502 141.733 207.181 141.712 206.86 141.724 C 206.811 141.447 206.737 141.175 206.638 140.912 C 206.566 140.78 206.44 140.686 206.294 140.653 C 205.949 140.555 205.297 141.035 205.384 141.33 C 205.468 141.644 205.777 141.84 206.097 141.785 C 206.392 141.785 206.675 141.674 206.971 141.613 C 206.971 142.351 206.971 143.089 206.971 143.827 C 206.669 143.772 206.365 143.735 206.06 143.717 C 205.753 143.661 205.436 143.746 205.198 143.949 C 204.96 144.152 204.825 144.45 204.83 144.762 C 204.498 144.762 204.166 144.762 203.846 144.762 C 203.206 144.664 203.034 144.43 203.28 143.778 C 203.44 143.36 203.464 143.126 203.058 143.015 C 202.907 142.96 202.742 142.96 202.591 143.015 C 200.819 143.963 200.622 145.033 201.914 146.559 C 202.138 146.829 202.531 146.888 202.825 146.694 C 203.574 146.362 204.216 145.83 204.682 145.156 C 204.768 145.033 204.682 144.824 204.682 144.664 C 205.525 144.962 206.45 144.53 206.761 143.692 M 201.496 154.765 C 201.818 154.707 202.129 154.599 202.419 154.445 C 203.159 153.784 203.936 153.164 204.744 152.587 C 205.568 152.095 206.552 151.849 207.438 151.431 C 207.877 151.193 208.291 150.909 208.668 150.582 C 209.644 149.691 210.22 148.445 210.268 147.124 C 210.268 147.014 210.12 146.854 210.022 146.718 C 209.725 146.354 209.225 146.229 208.791 146.411 C 207.692 146.811 206.803 147.641 206.331 148.712 C 205.691 149.942 205.101 151.074 203.415 150.914 C 202.193 151.45 201.262 152.485 200.856 153.756 C 200.71 154.079 200.839 154.461 201.151 154.629 C 201.287 154.687 201.427 154.733 201.57 154.765"/><path fill="#ff0000" fill-opacity="1" d="M 161.722 177.89 C 162.411 176.955 163.137 176.057 163.9 175.171 C 165.252 173.707 166.513 172.162 167.677 170.546 C 168.779 169.091 169.988 167.722 171.294 166.449 C 171.601 166.129 171.921 166.178 172.081 166.523 C 172.161 166.655 172.183 166.815 172.143 166.965 C 171.281 168.922 169.805 170.57 169.202 172.674 C 169.125 172.829 168.987 172.945 168.821 172.994 C 165.88 173.892 164.638 176.623 162.669 178.616 C 162.417 178.798 162.092 178.849 161.796 178.752 C 161.488 178.653 161.427 178.235 161.685 177.89"/><path fill="#ff0000" fill-opacity="1" d="M 165.241 180.062 C 165.241 180.715 165.241 181.367 165.241 182.019 C 165.156 182.523 164.72 182.893 164.208 182.892 C 163.376 183.009 162.537 182.747 161.919 182.179 C 161.612 181.908 161.501 181.539 161.735 181.404 C 162.806 180.617 164.097 180.187 165.426 180.173 L 165.241 180.062 Z"/><path fill="#ff0000" fill-opacity="1" d="M 192.438 162 C 192.757 162 193.077 162.099 193.409 162.123 C 194.738 162.234 194.947 163.243 194.455 164.178 C 194.213 164.62 193.724 164.868 193.225 164.805 C 192.752 164.687 192.436 164.244 192.474 163.76 C 192.474 163.12 192.548 162.529 192.585 161.828 L 192.438 162 Z"/><path fill="#ff0000" fill-opacity="1" d="M 165.334 180.147 C 165.203 179.487 165.479 178.814 166.035 178.437 C 166.173 178.344 166.339 178.305 166.503 178.326 C 166.958 178.326 167.032 178.584 166.749 178.929 C 166.466 179.273 166.06 180.036 165.297 180.048 L 165.334 180.147 Z"/><path fill="#ff0000" fill-opacity="1" d="M 190.907 165.311 C 190.907 165.421 190.907 165.606 190.907 165.618 C 190.636 165.717 190.291 165.889 190.07 165.803 C 189.615 165.631 189.652 165.323 190.07 165.138 C 190.214 165.089 190.369 165.089 190.513 165.138 C 190.654 165.186 190.787 165.257 190.907 165.348"/></g><defs><clipPath id="clip0_35_244373" clipPathUnits="userSpaceOnUse"><rect fill="#ffffff" x="0" y="0" width="256" height="256"/></clipPath></defs></svg>
